<?xml version="1.0" encoding="utf-8"?>
<!-- Generator: Adobe Illustrator 25.0.1, SVG Export Plug-In . SVG Version: 6.00 Build 0)  -->
<svg version="1.1"
	 id="svg4986" inkscape:version="0.92.4 (5da689c313, 2019-01-14)" xmlns:cc="http://creativecommons.org/ns#" xmlns:dc="http://purl.org/dc/elements/1.1/" xmlns:inkscape="http://www.inkscape.org/namespaces/inkscape" xmlns:rdf="http://www.w3.org/1999/02/22-rdf-syntax-ns#" xmlns:sodipodi="http://sodipodi.sourceforge.net/DTD/sodipodi-0.dtd" xmlns:svg="http://www.w3.org/2000/svg"
	 xmlns="http://www.w3.org/2000/svg" xmlns:xlink="http://www.w3.org/1999/xlink" x="0px" y="0px" viewBox="0 0 864 312"
	 style="enable-background:new 0 0 864 312;" xml:space="preserve">
<style type="text/css">
	.st0{fill:#D2D2D2;}
	.st1{fill:#FFFFFF;}
	.st2{fill:#7CB2E5;}
	.st3{fill:#7CB3E5;}
	.st4{fill:#6D95CC;}
	.st5{fill:#A2551D;}
	.st6{fill:#944805;}
	.st7{fill:#7C3906;}
	.st8{fill:#7DB3E5;}
	.st9{fill:#95C2EB;}
	.st10{fill:#A7CBED;}
	.st11{fill:#A9CDEE;}
	.st12{fill:#96AAC3;}
	.st13{fill:#944906;}
</style>
<sodipodi:namedview  bordercolor="#666666" borderlayer="true" borderopacity="1" gridtolerance="10" guidetolerance="10" id="namedview4988" inkscape:current-layer="Layer_1" inkscape:cx="379.42015" inkscape:cy="181.02078" inkscape:guide-bbox="true" inkscape:pageopacity="0" inkscape:pageshadow="2" inkscape:showpageshadow="false" inkscape:window-height="1137" inkscape:window-maximized="1" inkscape:window-width="1920" inkscape:window-x="1912" inkscape:window-y="-8" inkscape:zoom="1.3148148" objecttolerance="10" pagecolor="#ffffff" showborder="true" showgrid="false" showguides="true">
	</sodipodi:namedview>
<g id="Layer_2_1_">
	<rect id="rect4930" x="2.3" y="2.3" width="859.5" height="307.5"/>
	<path id="path4932" class="st0" d="M4.5,4.5h855v303H4.5V4.5z M0,312h864V0H0V312z"/>
</g>
<g id="Layer_1">
	<path class="st1" d="M352.9,216.8l10.1,2.6c-2.1,8.3-5.9,14.7-11.5,19c-5.5,4.4-12.3,6.6-20.2,6.6c-8.3,0-15-1.7-20.1-5
		c-5.2-3.4-9.1-8.2-11.8-14.6c-2.7-6.4-4-13.2-4-20.5c0-8,1.5-14.9,4.6-20.9s7.4-10.4,13-13.5c5.6-3.1,11.8-4.6,18.6-4.6
		c7.7,0,14.1,2,19.3,5.9c5.2,3.9,8.9,9.4,10.9,16.5l-10,2.4c-1.8-5.6-4.4-9.6-7.7-12.2c-3.4-2.5-7.6-3.8-12.7-3.8
		c-5.9,0-10.8,1.4-14.8,4.2s-6.7,6.6-8.3,11.4c-1.6,4.8-2.4,9.7-2.4,14.7c0,6.5,0.9,12.2,2.8,17.1c1.9,4.9,4.8,8.5,8.9,10.9
		c4,2.4,8.3,3.6,13,3.6c5.7,0,10.5-1.6,14.4-4.9C348.8,228.1,351.5,223.2,352.9,216.8z"/>
	<path class="st1" d="M374.3,243.6V167h9.4v27.5c4.4-5.1,9.9-7.6,16.6-7.6c4.1,0,7.7,0.8,10.7,2.4c3,1.6,5.2,3.9,6.5,6.7
		c1.3,2.9,2,7,2,12.4v35.2h-9.4v-35.2c0-4.7-1-8.1-3.1-10.3c-2-2.1-4.9-3.2-8.6-3.2c-2.8,0-5.4,0.7-7.9,2.2
		c-2.5,1.4-4.2,3.4-5.3,5.9c-1,2.5-1.6,5.9-1.6,10.2v30.4H374.3z"/>
	<path class="st1" d="M430.3,215.9c0-10.3,2.9-17.9,8.6-22.8c4.8-4.1,10.6-6.2,17.5-6.2c7.6,0,13.9,2.5,18.7,7.5
		c4.8,5,7.3,11.9,7.3,20.7c0,7.1-1.1,12.8-3.2,16.8c-2.1,4.1-5.3,7.3-9.4,9.5c-4.1,2.3-8.6,3.4-13.4,3.4c-7.8,0-14-2.5-18.8-7.5
		C432.7,232.4,430.3,225.2,430.3,215.9z M440,215.9c0,7.1,1.5,12.4,4.7,16c3.1,3.5,7,5.3,11.7,5.3c4.7,0,8.6-1.8,11.7-5.3
		c3.1-3.6,4.6-9,4.6-16.2c0-6.9-1.6-12.1-4.7-15.6c-3.1-3.5-7-5.3-11.6-5.3c-4.7,0-8.6,1.8-11.7,5.3
		C441.5,203.5,440,208.8,440,215.9z"/>
	<path class="st1" d="M529.5,223.3l9.2,1.2c-1,6.4-3.6,11.4-7.8,15c-4.2,3.6-9.3,5.4-15.3,5.4c-7.6,0-13.7-2.5-18.3-7.4
		c-4.6-5-6.9-12.1-6.9-21.3c0-6,1-11.2,3-15.7c2-4.5,5-7.9,9.1-10.1c4.1-2.2,8.5-3.4,13.2-3.4c6,0,11,1.5,14.8,4.6
		c3.8,3,6.3,7.4,7.4,13l-9.1,1.4c-0.9-3.7-2.4-6.5-4.6-8.4c-2.2-1.9-4.9-2.8-8-2.8c-4.7,0-8.6,1.7-11.5,5.1c-3,3.4-4.4,8.8-4.4,16.1
		c0,7.5,1.4,12.9,4.3,16.2c2.9,3.4,6.6,5.1,11.2,5.1c3.7,0,6.8-1.1,9.2-3.4C527.3,231.5,528.9,228,529.5,223.3z"/>
	<path class="st1" d="M543.3,215.9c0-10.3,2.9-17.9,8.6-22.8c4.8-4.1,10.6-6.2,17.5-6.2c7.6,0,13.9,2.5,18.7,7.5
		c4.8,5,7.3,11.9,7.3,20.7c0,7.1-1.1,12.8-3.2,16.8c-2.1,4.1-5.3,7.3-9.4,9.5c-4.1,2.3-8.6,3.4-13.4,3.4c-7.8,0-14-2.5-18.8-7.5
		C545.7,232.4,543.3,225.2,543.3,215.9z M553,215.9c0,7.1,1.5,12.4,4.6,16c3.1,3.5,7,5.3,11.7,5.3c4.7,0,8.6-1.8,11.7-5.3
		c3.1-3.6,4.6-9,4.6-16.2c0-6.9-1.6-12.1-4.7-15.6c-3.1-3.5-7-5.3-11.6-5.3c-4.7,0-8.6,1.8-11.7,5.3
		C554.6,203.5,553,208.8,553,215.9z"/>
	<path class="st1" d="M606.1,243.6V167h9.4v76.6H606.1z"/>
	<path class="st1" d="M666.3,236.8c-3.5,3-6.8,5-10.1,6.3c-3.2,1.2-6.7,1.8-10.4,1.8c-6.1,0-10.8-1.5-14.1-4.5
		c-3.3-3-4.9-6.8-4.9-11.4c0-2.7,0.6-5.2,1.9-7.4c1.2-2.2,2.9-4,4.9-5.4c2-1.4,4.3-2.4,6.8-3.1c1.8-0.5,4.6-1,8.4-1.4
		c7.6-0.9,13.2-2,16.8-3.2c0-1.3,0.1-2.1,0.1-2.5c0-3.8-0.9-6.5-2.7-8.1c-2.4-2.1-6-3.2-10.7-3.2c-4.4,0-7.7,0.8-9.8,2.3
		c-2.1,1.6-3.7,4.3-4.7,8.2l-9.2-1.3c0.8-3.9,2.2-7.1,4.1-9.5c1.9-2.4,4.7-4.3,8.3-5.6c3.6-1.3,7.8-2,12.6-2c4.7,0,8.6,0.6,11.5,1.7
		c3,1.1,5.1,2.5,6.5,4.2c1.4,1.7,2.4,3.8,2.9,6.4c0.3,1.6,0.5,4.5,0.5,8.7v12.5c0,8.7,0.2,14.3,0.6,16.6c0.4,2.3,1.2,4.5,2.4,6.7
		h-9.8C667.2,241.7,666.6,239.4,666.3,236.8z M665.5,215.8c-3.4,1.4-8.5,2.6-15.4,3.6c-3.9,0.6-6.6,1.2-8.2,1.9
		c-1.6,0.7-2.8,1.7-3.7,3.1c-0.9,1.3-1.3,2.8-1.3,4.5c0,2.5,0.9,4.6,2.8,6.3c1.9,1.7,4.7,2.5,8.3,2.5c3.6,0,6.8-0.8,9.7-2.4
		c2.8-1.6,4.9-3.8,6.2-6.5c1-2.1,1.5-5.3,1.5-9.4V215.8z"/>
	<path class="st1" d="M710.2,235.2l1.4,8.3c-2.6,0.6-5,0.8-7.1,0.8c-3.4,0-6.1-0.5-7.9-1.6c-1.9-1.1-3.2-2.5-4-4.3
		c-0.8-1.8-1.1-5.5-1.1-11.1v-31.9h-6.9v-7.3h6.9v-13.7l9.4-5.6v19.4h9.5v7.3h-9.5v32.4c0,2.7,0.2,4.4,0.5,5.2
		c0.3,0.8,0.9,1.4,1.6,1.8c0.7,0.5,1.8,0.7,3.2,0.7C707.1,235.6,708.5,235.4,710.2,235.2z"/>
	<path class="st1" d="M757.3,225.7l9.7,1.2c-1.5,5.7-4.4,10.1-8.5,13.2c-4.1,3.1-9.4,4.7-15.9,4.7c-8.1,0-14.6-2.5-19.3-7.5
		c-4.8-5-7.1-12-7.1-21c0-9.3,2.4-16.6,7.2-21.7c4.8-5.2,11-7.7,18.7-7.7c7.4,0,13.5,2.5,18.2,7.6c4.7,5.1,7.1,12.2,7.1,21.3
		c0,0.6,0,1.4-0.1,2.5h-41.4c0.3,6.1,2.1,10.8,5.2,14c3.1,3.2,7,4.9,11.6,4.9c3.4,0,6.4-0.9,8.8-2.7
		C754,232.6,755.9,229.7,757.3,225.7z M726.5,210.5h31c-0.4-4.7-1.6-8.2-3.6-10.5c-3-3.6-6.9-5.4-11.7-5.4c-4.3,0-8,1.4-10.9,4.3
		C728.4,201.8,726.8,205.7,726.5,210.5z"/>
	<path class="st1" d="M778.4,265l-1-8.8c2.1,0.6,3.8,0.8,5.4,0.8c2.1,0,3.8-0.3,5-1c1.3-0.7,2.3-1.7,3.1-2.9c0.6-0.9,1.5-3.3,2.9-7
		c0.2-0.5,0.5-1.3,0.8-2.3l-21.1-55.6h10.1l11.5,32.1c1.5,4.1,2.8,8.4,4,12.9c1.1-4.3,2.4-8.5,3.9-12.6l11.9-32.3h9.4l-21.1,56.4
		c-2.3,6.1-4,10.3-5.3,12.6c-1.7,3.1-3.6,5.4-5.7,6.8c-2.2,1.4-4.7,2.2-7.7,2.2C782.7,266.1,780.7,265.7,778.4,265z"/>
	<path id="path4967" class="st1" d="M340,117.9c-5.3,3-11.3,4.5-18,4.5c-5.1,0-9.6-1.1-13.6-3.4c-3.9-2.2-7-5.4-9.1-9.5
		s-3.2-8.7-3.2-13.8c0-5.4,1.2-10.3,3.5-14.5s5.6-7.6,9.9-10s9.1-3.6,14.5-3.6c2.7,0,5.4,0.3,8.1,0.8s4.9,1.2,6.6,2v8
		c-4-2.7-9.1-4-15.3-4c-3.7,0-7,0.9-10,2.7c-3,1.8-5.3,4.3-6.9,7.4c-1.6,3.2-2.4,6.8-2.4,10.8c0,6.3,1.7,11.3,5,15s7.9,5.5,13.7,5.5
		c3.7,0,7-0.7,9.8-2.2V99.9h-11.3v-6.6H340V117.9z"/>
	<path id="path4969" class="st1" d="M383.1,104.6h-26.2c0.1,3.8,1.3,6.7,3.3,8.8c2.1,2,4.8,3.1,8.2,3.1c4.5,0,8.4-1.3,11.8-3.9v6.4
		c-1.5,1-3.4,1.9-5.7,2.5c-2.3,0.6-4.7,0.9-7.1,0.9c-5.7,0-10.2-1.7-13.3-5.1c-3.1-3.4-4.7-8.2-4.7-14.4c0-3.8,0.8-7.3,2.3-10.3
		c1.5-3.1,3.7-5.5,6.4-7.2c2.7-1.7,5.8-2.6,9.1-2.6c4.9,0,8.8,1.6,11.6,4.8c2.8,3.2,4.2,7.6,4.2,13.3v3.7H383.1z M375.8,98.9
		c0-3.3-0.8-5.8-2.3-7.5s-3.6-2.6-6.4-2.6c-2.5,0-4.7,0.9-6.6,2.7s-3,4.3-3.6,7.4H375.8z"/>
	<path id="path4971" class="st1" d="M411.5,121.1c-0.7,0.4-1.6,0.7-2.9,0.9c-1.2,0.2-2.3,0.3-3.3,0.3c-7,0-10.5-3.9-10.5-11.6v-21
		h-6.4v-6h6.4v-9l7.3-2.3v11.2h9.3v6h-9.3v19.8c0,2.5,0.4,4.3,1.2,5.3c0.8,1,2.2,1.5,4.3,1.5c1.4,0,2.7-0.4,3.8-1.2v6.1H411.5z"/>
	<path id="path4973" class="st1" d="M447.7,70.3c0,1.2-0.4,2.2-1.3,3.1s-2,1.3-3.3,1.3s-2.4-0.4-3.3-1.3c-0.9-0.8-1.3-1.9-1.3-3.2
		c0-1.3,0.5-2.4,1.4-3.2c0.9-0.8,2-1.3,3.2-1.3s2.3,0.4,3.2,1.3C447.3,68,447.7,69,447.7,70.3 M446.7,121.5h-7.3V83.7h7.3V121.5z"/>
	<path id="path4975" class="st1" d="M478.4,121.1c-0.7,0.4-1.6,0.7-2.9,0.9c-1.2,0.2-2.3,0.3-3.3,0.3c-7,0-10.5-3.9-10.5-11.6v-21
		h-6.4v-6h6.4v-9l7.3-2.3v11.2h9.3v6H469v19.8c0,2.5,0.4,4.3,1.2,5.3c0.8,1,2.2,1.5,4.3,1.5c1.4,0,2.7-0.4,3.8-1.2v6.1H478.4z"/>
	<path id="path4977" class="st1" d="M526.2,71.7c-1.2-0.6-2.5-1-4-1c-4.1,0-6.1,2.5-6.1,7.5v5.4h8.6v6h-8.6v31.8h-7.3V89.7h-6.4v-6
		h6.4v-5.8c0-4,1.1-7.2,3.4-9.6c2.3-2.4,5.4-3.6,9.4-3.6c2,0,3.5,0.2,4.7,0.7v6.3H526.2z"/>
	<path id="path4979" class="st1" d="M553.1,91c-0.4-0.3-1.2-0.6-2.2-0.9c-1-0.2-1.9-0.4-2.6-0.4c-2.6,0-4.7,1.2-6.3,3.5
		s-2.4,5.3-2.4,9v19.3h-7.3V83.7h7.3v7.6h0.2c0.8-2.6,2.1-4.6,3.8-6.1s3.7-2.2,5.9-2.2c1.5,0,2.7,0.2,3.5,0.5L553.1,91L553.1,91z"/>
	<path id="path4981" class="st1" d="M594.8,102.4c0,6.1-1.8,11-5.3,14.6s-8.2,5.4-14,5.4c-5.7,0-10.3-1.8-13.7-5.3
		s-5.1-8.2-5.1-14.1c0-6.3,1.8-11.2,5.3-14.8c3.5-3.6,8.3-5.4,14.4-5.4c5.7,0,10.2,1.7,13.4,5.2C593.2,91.5,594.8,96.3,594.8,102.4
		 M587.3,102.6c0-4.5-1-7.9-2.9-10.2c-2-2.3-4.7-3.5-8.3-3.5s-6.5,1.2-8.6,3.7c-2.1,2.4-3.1,5.9-3.1,10.3c0,4.3,1,7.6,3.1,10
		s4.9,3.6,8.6,3.6c3.7,0,6.5-1.2,8.4-3.5C586.3,110.5,587.3,107.1,587.3,102.6"/>
	<path id="path4983" class="st1" d="M660.1,121.5h-7.3V100c0-3.9-0.6-6.7-1.8-8.5s-3.3-2.6-6.2-2.6c-2.4,0-4.5,1.1-6.1,3.3
		c-1.7,2.2-2.5,4.9-2.5,7.9v21.4h-7.3V99.3c0-6.9-2.7-10.4-8-10.4c-2.5,0-4.6,1.1-6.2,3.2s-2.4,4.8-2.4,8.1v21.4H605V83.7h7.3v5.9
		h0.1c2.7-4.6,6.7-6.8,11.8-6.8c2.4,0,4.6,0.7,6.6,2c1.9,1.3,3.3,3.2,4.2,5.6c1.5-2.6,3.2-4.5,5.3-5.8c2.1-1.2,4.5-1.9,7.3-1.9
		c8.3,0,12.4,5.1,12.4,15.4v23.4H660.1z"/>
	<path class="st2" d="M116.4,66.1c0.2,0,0.3,0,0.5,0c4.8,3.7,9.6,7.4,14.3,11.1c4.4,3.5,8.9,7,13.3,10.5c0.5,0.4,0.9,0.2,1.4,0.1
		c8.6-3.4,17.1-6.9,25.7-10.3c0.5-0.2,1-0.4,1.5,0.1c5.5,7,10.9,14,16.3,21.1c0.5,0.6,0.9,0.4,1.5,0.3c10-1.9,20-3.8,30-5.8
		c1.1-0.2,1.5,0,1.8,1.1c2,6.9,4.1,13.7,6.2,20.5c1.9,6.2,3.8,12.4,5.8,18.6c0,0.4,0.1,0.7,0.1,1.1c0,0.7-0.1,1.4-0.1,2.1
		c0,32.4,0,64.8,0,97.2c0,2.1,0,2.1-2.1,2.1c-45.4,0-90.8,0-136.1,0c0-52.9,0-105.8,0-158.7c10.9,0,21.9,0,32.8,0
		c0-0.1,0.1-0.3,0.1-0.4c-4.7-3.4-9.4-6.9-14.3-10.5C115.7,66.2,116,66.1,116.4,66.1z M160,110.6c-8.4,0-15.2,2.3-21.5,6.4
		c-11.8,7.8-19.8,18.7-24.7,31.9c-3.7,10-4.1,20.2,0.4,30.2c4.7,10.4,12.7,16.6,24.3,17.5c8.1,0.6,15.4-2,22.2-6.3
		c10.3-6.5,18.7-15.1,26.1-24.7c2.1-2.7,3.2-5.8,2.9-9.3c-0.1-1.4-0.5-2.9-2-3.5c-1.5-0.7-2.6,0.2-3.7,1.1c-3.1,2.6-6.3,4.9-9.8,7
		c-7.5,4.5-15.3,8.3-24.1,9.2c-9.3,0.9-17.8-6.1-18.3-15.4c-0.5-10.1,4-17.9,11.9-23.8c6.4-4.8,13.5-6.6,21.4-4.3
		c3,0.9,4.4,2.8,4.6,5.9c0.1,3.2-0.8,6.1-2.1,8.9c-0.8,1.6-1.5,3.2-1.8,5c-0.2,1.5-0.1,3,1.3,4c1.4,1,2.9,0.9,4.3,0.2
		c0.8-0.3,1.4-0.8,2-1.4c4.1-4.5,7.4-9.6,9-15.5c2.4-8.8-0.4-15.8-8-19.7C169.6,111.6,164.5,110.7,160,110.6z M218.1,165.7
		c0-3.8-2.9-6.4-6.7-6c-6.1,0.6-11.8,6.3-12.3,12.4c-0.3,3.4,1.8,6,5.2,6.5C210.5,179.4,218.2,172.2,218.1,165.7z M216,128.9
		c-5.7,0-12,5.8-12.7,11.5c-0.6,5.1,2.6,8.1,7.6,7.2c5.4-0.9,10.4-6.2,11.1-11.8C222.6,131.8,220,128.9,216,128.9z"/>
	<path class="st3" d="M83.3,246.8c-7.8,2.7-15.5,5.4-23.3,8.1c-0.5,0.2-1,0.7-1.4,0.3c-0.5-0.4,0.1-0.9,0.3-1.3
		c3.9-9.5,7.8-19.1,11.8-28.6c0.4-0.9,0.4-1.5-0.1-2.4c-4-6.8-7.9-13.6-11.8-20.4c-0.5-0.8-0.5-1.4,0-2.3c4-6.6,7.9-13.3,11.9-19.9
		c0.5-0.8,0.5-1.4,0-2.2c-3.8-6.6-7.6-13.2-11.4-19.8c-0.8-1.3-1-2.3-0.1-3.7c3.9-6.5,7.6-13.1,11.4-19.6c0.6-1,0.6-1.7,0-2.8
		c-3.9-6.7-7.8-13.4-11.7-20.2c-0.5-0.8-0.6-1.5,0-2.4c3.9-6.4,7.7-12.9,11.6-19.4c0.7-1.1,0.8-2,0.2-3.2
		c-3.9-8.8-7.8-17.6-11.7-26.5c-0.1-0.3-0.6-0.7-0.3-1.1c0.3-0.3,0.8,0,1.1,0.1c7,1.9,13.9,3.8,20.9,5.6c0.9,0.3,1.8,0.6,2.7,0.9
		c0,3.6,0,7.3,0,10.9c0,37.7,0,75.5,0,113.2C83.4,209.2,83.3,228,83.3,246.8z"/>
	<path class="st4" d="M96.5,235.9c45.4,0,90.8,0,136.1,0c2.1,0,2.1,0,2.1-2.1c0-32.4,0-64.8,0-97.2c0-0.7,0.1-1.4,0.1-2.1
		c0.2,0.5,0.4,0.9,0.5,1.4c2.2,8.5,4.5,17.1,6.7,25.6c1.9,7.3,3.8,14.6,5.6,22c0.1,0.4,0.2,0.8,0.2,1.2c0,20.7,0,41.5,0,62.2
		c-4.9,0-9.9,0-14.8,0c-49.1,0-98.2,0-147.3,0c-0.7,0-1.4,0-2.1,0c0-0.1,0-0.2,0-0.2C88.1,243.2,92.3,239.5,96.5,235.9z"/>
	<path class="st5" d="M131.2,77.2c-4.8-3.7-9.6-7.4-14.3-11.1c0.5-0.3,1-0.2,1.5-0.2c42.1,0,84.3,0,126.4,0c0.5,0,0.9,0.1,1.4,0.1
		c-0.1,0.5-0.5,0.8-0.8,1.1c-3.6,3-7.2,5.9-10.7,9c-1,0.9-1.9,1.1-3.1,1.1c-18.9,0-37.7,0-56.6,0c-0.6,0-1.3-0.3-1.9,0.4
		c-0.5-0.5-1-0.3-1.5-0.1c-0.3-0.3-0.6-0.2-1-0.2C157.4,77.1,144.3,77.1,131.2,77.2z"/>
	<path class="st6" d="M173.1,77.5c0.5-0.6,1.2-0.4,1.9-0.4c18.9,0,37.7,0,56.6,0c1.2,0,2.1-0.3,3.1-1.1c3.5-3.1,7.1-6,10.7-9
		c0.3-0.3,0.7-0.6,0.8-1.1c0.4,0.1,0.8,0.1,1.2,0.2c-2.9,3.2-6.5,5.8-9.8,8.5c-1.8,1.5-2.8,2.8-2.8,5.4c0.1,17.8,0.1,35.5,0.1,53.3
		c-1.9-6.2-3.9-12.4-5.8-18.6c-2.1-6.8-4.2-13.7-6.2-20.5c-0.3-1.1-0.7-1.3-1.8-1.1c-10,2-20,3.8-30,5.8c-0.6,0.1-1,0.3-1.5-0.3
		C184,91.5,178.5,84.5,173.1,77.5z"/>
	<path class="st7" d="M234.7,133.3c0-17.8,0.1-35.5-0.1-53.3c0-2.5,1-3.9,2.8-5.4c3.3-2.8,6.9-5.3,9.8-8.5c0.3-0.1,0.5-0.1,0.6,0.3
		c0,0.5,0,0.9,0,1.4c0,37.9,0,75.8,0,113.8c0,0.6,0.2,1.3-0.2,1.9c-1.9-7.3-3.7-14.7-5.6-22c-2.2-8.5-4.5-17.1-6.7-25.6
		c-0.1-0.5-0.3-1-0.5-1.4C234.8,134,234.8,133.7,234.7,133.3z"/>
	<path class="st8" d="M247.9,246.8c0-20.7,0-41.5,0-62.2c0.6,0.1,0.9,0.5,1.2,0.9c6.1,6.1,12.2,12.2,18.4,18.3
		c0.7,0.7,0.9,1.2,0.3,2.2c-3,4.9-5.9,9.8-8.9,14.7c-0.7,1.1-0.6,1.9,0,2.9c5.7,10.2,11.3,20.4,16.9,30.7c0.2,0.3,0.4,0.6,0.3,1.2
		C266.6,252.6,257.3,249.7,247.9,246.8z"/>
	<path class="st9" d="M116.4,66.1c-0.3,0-0.7,0.1-1.3,0.2c4.9,3.6,9.6,7,14.3,10.5c0,0.1-0.1,0.3-0.1,0.4c-10.9,0-21.9,0-32.8,0
		c-0.1,0-0.2,0-0.3,0c0-0.5-0.3-0.8-0.6-1c-2.2-1.8-4.3-3.6-6.5-5.4c-1.7-1.5-3.6-2.8-5.2-4.6c9.7,0,19.4-0.1,29.1,0
		C114.2,66.1,115.3,65.5,116.4,66.1z"/>
	<path class="st10" d="M83.7,246.6c0,0.1,0,0.2,0,0.2c-0.1,0-0.2,0-0.4,0c0-18.8,0-37.6,0-56.5c0-37.7,0-75.5,0-113.2
		c0.1,0,0.2,0,0.3,0c0,52.6,0,105.1,0,157.7C83.7,238.7,83.7,242.6,83.7,246.6z"/>
	<path class="st11" d="M84,66.1c1.5,1.7,3.4,3.1,5.2,4.6c2.1,1.8,4.3,3.6,6.5,5.4c0.3,0.3,0.6,0.6,0.6,1c-1,0-1.6-0.6-2.2-1.2
		c-3.4-2.9-6.9-5.7-10.3-8.6c0-0.4,0-0.8,0-1.2C83.8,66.2,83.9,66.1,84,66.1z"/>
	<path class="st12" d="M83.7,66.2c0,0.4,0,0.8,0,1.2c0,3.3,0,6.5,0,9.7c-0.1,0-0.2,0-0.3,0c0-3.6,0-7.3,0-10.9
		C83.5,66.2,83.6,66.2,83.7,66.2z"/>
	<path class="st6" d="M160,110.6c4.5,0.1,9.6,1.1,14.3,3.5c7.6,3.9,10.5,10.9,8,19.7c-1.7,6-4.9,11-9,15.5c-0.6,0.6-1.2,1.1-2,1.4
		c-1.5,0.6-3,0.8-4.3-0.2c-1.3-1-1.5-2.5-1.3-4c0.2-1.8,1-3.4,1.8-5c1.4-2.8,2.3-5.8,2.1-8.9c-0.1-3.1-1.6-5.1-4.6-5.9
		c-7.9-2.4-15-0.5-21.4,4.3c-7.8,5.9-12.4,13.7-11.9,23.8c0.5,9.4,9,16.3,18.3,15.4c8.9-0.9,16.6-4.7,24.1-9.2
		c3.4-2.1,6.7-4.4,9.8-7c1.1-0.9,2.2-1.8,3.7-1.1c1.5,0.7,1.9,2.1,2,3.5c0.3,3.5-0.8,6.6-2.9,9.3c-7.4,9.6-15.8,18.2-26.1,24.7
		c-6.8,4.3-14.1,6.9-22.2,6.3c-11.6-0.9-19.6-7.1-24.3-17.5c-4.5-9.9-4.1-20.1-0.4-30.2c4.9-13.2,12.9-24.1,24.7-31.9
		C144.8,112.9,151.7,110.5,160,110.6z"/>
	<path class="st9" d="M83.7,77.1c0-3.3,0-6.5,0-9.7c3.4,2.9,6.9,5.8,10.3,8.6c0.6,0.5,1.3,1.2,2.2,1.2c0.1,0,0.2,0,0.3,0
		c0,52.9,0,105.8,0,158.7c-4.2,3.6-8.4,7.3-12.8,10.7c0-3.9,0-7.8,0-11.7C83.7,182.2,83.7,129.7,83.7,77.1z"/>
	<path class="st13" d="M218.1,165.7c0.1,6.5-7.6,13.7-13.7,12.8c-3.4-0.5-5.5-3-5.2-6.5c0.5-6.1,6.2-11.8,12.3-12.4
		C215.3,159.4,218.1,161.9,218.1,165.7z"/>
	<path class="st13" d="M216,128.9c4.1,0,6.7,2.9,6.1,6.9c-0.7,5.5-5.8,10.8-11.1,11.8c-5.1,0.9-8.2-2.1-7.6-7.2
		C203.9,134.8,210.3,129,216,128.9z"/>
	<path class="st13" d="M131.2,77.2c13.1,0,26.3,0,39.4,0c0.4,0,0.7,0,1,0.2c-8.6,3.4-17.1,6.9-25.7,10.3c-0.5,0.2-0.9,0.4-1.4-0.1
		C140,84.1,135.6,80.7,131.2,77.2z"/>
</g>
</svg>
